<?xml version="1.0" encoding="UTF-8"?>
<svg version="1.1" xmlns="http://www.w3.org/2000/svg" width="512" height="512">
<path d="M0 0 C168.96 0 337.92 0 512 0 C512 168.96 512 337.92 512 512 C343.04 512 174.08 512 0 512 C0 343.04 0 174.08 0 0 Z " fill="#000000" transform="translate(0,0)"/>
<path d="M0 0 C1.89047155 1.7763993 3.75808234 3.57358823 5.625 5.375 C6.34171875 6.04015625 7.0584375 6.7053125 7.796875 7.390625 C25.42507123 24.17266781 36.99193045 47.15442158 45.25 69.75 C45.50998779 70.44528809 45.76997559 71.14057617 46.0378418 71.85693359 C47.4244686 75.84133519 47.61428178 78.32146349 46.625 82.375 C42.79471731 83.53120128 38.96029894 84.67305944 35.125 85.8125 C34.04734375 86.13798828 32.9696875 86.46347656 31.859375 86.79882812 C26.09222125 88.50435835 20.62097624 89.85835642 14.625 90.375 C14.2846875 89.26125 13.944375 88.1475 13.59375 87 C3.30570012 54.23735258 -16.09919595 25.78480807 -47 9.40234375 C-84.32717273 -9.38240195 -133.1524313 -11.12131569 -172.56640625 1.64453125 C-190.27067602 7.80918858 -205.04799119 17.25216542 -218.375 30.375 C-219.54675781 31.51001953 -219.54675781 31.51001953 -220.7421875 32.66796875 C-232.00952706 44.3162326 -239.59532351 59.37276695 -245.375 74.375 C-245.82359375 75.51453125 -246.2721875 76.6540625 -246.734375 77.828125 C-264.80295485 127.5724868 -262.93104938 193.73202658 -241.39453125 241.9609375 C-239.55378101 245.86235265 -237.52902396 249.63851084 -235.375 253.375 C-235.02856445 253.97989258 -234.68212891 254.58478516 -234.32519531 255.20800781 C-229.03860292 264.27695634 -222.78736634 271.96263366 -215.375 279.375 C-214.64667969 280.10332031 -213.91835937 280.83164062 -213.16796875 281.58203125 C-199.62930652 294.3169139 -182.20013349 302.65982254 -164.375 307.375 C-163.36308594 307.65085937 -162.35117188 307.92671875 -161.30859375 308.2109375 C-124.14841263 317.60562659 -78.88668262 315.15590357 -45.375 295.375 C-24.50253722 282.55186004 -10.31398515 265.33443005 -4.375 241.375 C-1.3943804 224.53358498 -3.5640481 207.69723781 -13.375 193.375 C-19.03853923 185.96372796 -25.65208395 180.54285784 -33.375 175.375 C-34.99814837 176.99814837 -34.88991022 179.01997029 -35.25 181.25 C-38.85252672 201.6555528 -46.60986951 219.55886733 -61.375 234.375 C-62.04917969 235.07238281 -62.72335937 235.76976562 -63.41796875 236.48828125 C-79.88762077 252.40173489 -102.52321287 256.76393387 -124.63720703 256.74780273 C-145.36639427 256.35703709 -164.72428979 248.92336434 -179.75 234.4375 C-193.07735851 220.40645696 -196.98712981 205.16550717 -196.71484375 186.30859375 C-196.08015542 169.7039882 -187.44492774 156.26336831 -175.60546875 145.16796875 C-166.63423576 137.17275386 -155.74958482 131.99852043 -144.375 128.375 C-143.39104248 128.05740723 -143.39104248 128.05740723 -142.38720703 127.73339844 C-130.04749021 124.00519096 -117.46031135 124.0081367 -104.6875 124 C-103.86137207 123.99800598 -103.03524414 123.99601196 -102.18408203 123.99395752 C-90.78199249 123.99706759 -79.6665318 124.7988469 -68.375 126.375 C-72.68758034 111.63486178 -76.65557429 98.73311014 -90.81640625 90.6953125 C-100.21695058 85.84434459 -109.1503921 85.15464255 -119.5625 85.0625 C-120.63564453 85.03349609 -121.70878906 85.00449219 -122.81445312 84.97460938 C-132.5201072 84.89827937 -140.62053078 87.27845674 -148.875 92.4375 C-149.6690625 92.92347656 -150.463125 93.40945312 -151.28125 93.91015625 C-153.39885116 95.29704378 -153.39885116 95.29704378 -155.03125 97.05859375 C-156.375 98.375 -156.375 98.375 -158.375 98.375 C-158.66375 98.99375 -158.9525 99.6125 -159.25 100.25 C-160.375 102.375 -160.375 102.375 -162.375 104.375 C-167.80644788 103.89469841 -172.54464728 99.55883023 -176.93066406 96.62841797 C-178.62588465 95.49941083 -180.33187398 94.38814525 -182.0390625 93.27734375 C-183.10382813 92.56964844 -184.16859375 91.86195313 -185.265625 91.1328125 C-186.24563477 90.4845752 -187.22564453 89.83633789 -188.23535156 89.16845703 C-188.94143555 88.57661621 -189.64751953 87.98477539 -190.375 87.375 C-190.375 81.4259471 -184.878868 76.94678462 -180.953125 72.84375 C-163.40648769 56.02389648 -140.65385914 48.82444179 -116.64648438 49.02368164 C-93.8764306 49.58743297 -72.19946573 56.61917699 -55.96411133 73.19580078 C-45.346031 84.56322203 -38.73968006 98.8540823 -35.0625 113.875 C-34.88630127 114.59018799 -34.71010254 115.30537598 -34.52856445 116.04223633 C-33.45868262 120.81576384 -33.49279125 124.90497063 -33.8125 129.8125 C-33.86541903 133.26702382 -33.86541903 133.26702382 -32.375 136.375 C-27.54788562 140.41791612 -21.45364646 142.67613822 -15.75683594 145.22363281 C-10.40246958 147.81190585 -5.93798634 151.59873544 -1.375 155.375 C-0.67632812 155.91125 0.02234375 156.4475 0.7421875 157 C17.71510261 170.63286354 27.39239866 191.70893662 31.23828125 212.7265625 C33.38776802 233.00555887 31.45925344 252.90648343 22.625 271.375 C22.31900879 272.01598633 22.01301758 272.65697266 21.69775391 273.31738281 C17.56339379 281.81333505 12.91044658 289.26660122 6.625 296.375 C5.91472656 297.20515625 5.20445312 298.0353125 4.47265625 298.890625 C-12.63385431 318.49246135 -33.86377998 331.31969124 -58.375 339.375 C-59.38763916 339.70918945 -60.40027832 340.04337891 -61.44360352 340.38769531 C-80.29405285 346.41557753 -99.27866414 347.75275318 -118.9375 347.75 C-119.77068756 347.75181274 -120.60387512 347.75362549 -121.46231079 347.75549316 C-136.15460691 347.75187201 -151.02633662 347.02417824 -165.375 343.625 C-166.10517334 343.45581055 -166.83534668 343.28662109 -167.58764648 343.11230469 C-191.97626156 337.24005395 -214.30608386 326.81372081 -233.375 310.375 C-234.34179688 309.54226563 -235.30859375 308.70953125 -236.3046875 307.8515625 C-243.39270911 301.61781971 -249.68179157 294.92852442 -255.375 287.375 C-255.77928223 286.83987793 -256.18356445 286.30475586 -256.60009766 285.75341797 C-285.09607566 247.27311791 -292.83167487 198.1482648 -292.75 151.4375 C-292.75012085 150.36838379 -292.7502417 149.29926758 -292.75036621 148.19775391 C-292.72266627 130.93102644 -291.75342851 114.34793758 -288.375 97.375 C-288.22015137 96.55386719 -288.06530273 95.73273438 -287.90576172 94.88671875 C-282.17282016 65.07288312 -269.66421637 35.17760224 -249.375 12.375 C-248.64667969 11.52679688 -247.91835937 10.67859375 -247.16796875 9.8046875 C-221.03751278 -20.12406593 -182.49353287 -37.14410512 -143.15966797 -40.20654297 C-92.08587132 -43.32686524 -39.12697596 -35.84013699 0 0 Z " fill="#FDFDFD" transform="translate(378.375,102.625)"/>
<path d="M0 0 C1.23645264 0.00008057 2.47290527 0.00016113 3.74682617 0.00024414 C12.45061485 0.05459633 20.73761218 0.64784124 29.3125 2.1875 C31.64488646 2.52739551 33.97800944 2.8623702 36.3125 3.1875 C35.96508918 21.06336575 30.9705862 38.93893501 18.5078125 52.18359375 C7.26507191 62.44609539 -6.96774331 64.60643886 -21.70703125 64.4609375 C-32.4145214 63.72538862 -42.45981124 60.18308895 -50.6875 53.1875 C-56.64063357 46.20424674 -59.25696592 39.47512376 -59.0546875 30.31640625 C-58.07628666 21.9791821 -53.55499076 16.15903884 -47.20703125 10.9375 C-32.93900346 1.02730395 -16.78998725 -0.01021358 0 0 Z " fill="#020202" transform="translate(274.6875,260.8125)"/>
</svg>
